<?xml version="1.0" standalone="no"?>
<!DOCTYPE svg PUBLIC "-//W3C//DTD SVG 20010904//EN"
 "http://www.w3.org/TR/2001/REC-SVG-20010904/DTD/svg10.dtd">
<svg version="1.0" xmlns="http://www.w3.org/2000/svg"
 width="123.000000pt" height="141.000000pt" viewBox="0 0 123.000000 141.000000"
 preserveAspectRatio="xMidYMid meet">

<g transform="translate(0.000000,141.000000) scale(0.100000,-0.100000)"
fill="#000000" stroke="none">
<path d="M1040 1150 c-85 -59 -166 -117 -180 -127 -14 -11 -71 -53 -127 -92
l-102 -72 -215 144 c-128 87 -219 142 -226 137 -7 -4 -28 -117 -50 -271 -21
-145 -48 -320 -59 -389 -22 -131 -71 -460 -71 -472 0 -5 6 -8 13 -8 12 0 46
22 361 233 88 59 162 107 165 107 3 0 83 -56 176 -124 94 -69 196 -143 228
-166 31 -23 63 -40 70 -37 13 5 17 30 113 652 96 629 92 596 72 594 -7 0 -83
-49 -168 -109z m120 0 c0 -23 -48 -353 -90 -619 -16 -102 -34 -189 -39 -194
-7 -7 -16 -5 -28 5 -33 29 -247 171 -258 171 -6 0 -157 -97 -336 -216 -180
-119 -331 -217 -338 -217 -15 0 -14 12 9 159 35 227 90 591 90 601 0 26 28 10
206 -116 l61 -43 104 71 c270 184 393 268 493 340 60 43 113 78 117 78 5 0 9
-9 9 -20z m-765 -193 c93 -62 171 -119 173 -127 2 -15 -96 -90 -117 -90 -7 0
-68 39 -137 88 l-125 87 6 62 c6 66 13 93 24 93 3 0 82 -51 176 -113z m484
-598 c138 -99 141 -102 140 -138 -1 -74 -13 -116 -34 -115 -11 0 -94 54 -184
118 -90 65 -170 120 -177 123 -29 11 -12 39 44 75 31 21 60 38 64 38 3 0 70
-46 147 -101z"/>
</g>
</svg>
